<?xml version="1.0" encoding="UTF-8"?>
<svg version="1.1" xmlns="http://www.w3.org/2000/svg" width="521" height="184">
<path d="M0 0 C171.93 0 343.86 0 521 0 C521 60.72 521 121.44 521 184 C349.07 184 177.14 184 0 184 C0 123.28 0 62.56 0 0 Z " fill="#FDFDFD" transform="translate(0,0)"/>
<path d="M0 0 C6.36042919 3.79510016 10.32699718 9.06615155 12.1484375 16.2421875 C14.12739975 29.5109672 13.7651685 41.81814212 5.7578125 53.05859375 C1.01753537 58.82254941 -3.02750612 61.98560996 -10.64453125 62.77734375 C-18.42299078 63.1169783 -23.33320165 62.37110071 -29.375 57.4375 C-29.31494146 60.35634528 -29.22791384 63.27011639 -29.125 66.1875 C-29.11082031 67.0125 -29.09664063 67.8375 -29.08203125 68.6875 C-28.89816564 73.65839006 -28.89816564 73.65839006 -26.53125 77.9375 C-23.9301894 79.74693346 -21.42001668 80.6070409 -18.375 81.4375 C-18.375 81.7675 -18.375 82.0975 -18.375 82.4375 C-27.945 82.4375 -37.515 82.4375 -47.375 82.4375 C-47.375 81.7775 -47.375 81.1175 -47.375 80.4375 C-46.405625 80.14875 -45.43625 79.86 -44.4375 79.5625 C-41.26835797 78.79535318 -41.26835797 78.79535318 -40.375 76.4375 C-40.26250897 74.23784261 -40.21562452 72.03473678 -40.19799805 69.83227539 C-40.19142685 69.15405228 -40.18485565 68.47582916 -40.17808533 67.77705383 C-40.15835269 65.52975356 -40.1466916 63.28252002 -40.13671875 61.03515625 C-40.13264322 60.26845549 -40.1285677 59.50175472 -40.12436867 58.7118206 C-40.10351082 54.65594629 -40.08920634 50.60010581 -40.07983398 46.54418945 C-40.06875336 42.34951116 -40.03433431 38.155361 -39.99466228 33.96086979 C-39.96855787 30.739568 -39.96014784 27.51839343 -39.95655251 24.29699516 C-39.95167264 22.75038512 -39.94001893 21.20378128 -39.92151451 19.65727425 C-39.89724627 17.4951254 -39.89806408 15.33436158 -39.9050293 13.17211914 C-39.89916306 11.9412709 -39.89329681 10.71042267 -39.88725281 9.442276 C-40.08634773 6.35704519 -40.08634773 6.35704519 -42.26374817 4.55955505 C-44.31823732 3.46766734 -46.09071061 2.84540882 -48.375 2.4375 C-48.375 1.7775 -48.375 1.1175 -48.375 0.4375 C-42.105 0.1075 -35.835 -0.2225 -29.375 -0.5625 C-29.045 2.7375 -28.715 6.0375 -28.375 9.4375 C-27.88 8.550625 -27.385 7.66375 -26.875 6.75 C-20.68917171 -2.29247816 -9.92131223 -4.37145941 0 0 Z " fill="#252525" transform="translate(424.375,79.5625)"/>
<path d="M0 0 C4.18907102 3.79349289 5.83535142 6.95127598 6.15917969 12.54833984 C6.20022057 14.5475423 6.22024519 16.54725279 6.22265625 18.546875 C6.2391925 19.60379547 6.25572876 20.66071594 6.27276611 21.74966431 C6.32119157 25.11181482 6.34260568 28.47351315 6.36328125 31.8359375 C6.39144538 34.12111643 6.42137342 36.40627435 6.453125 38.69140625 C6.52694901 44.28116806 6.57862355 49.870803 6.61328125 55.4609375 C10.02073313 56.22379986 12.26326287 56.57761029 15.61328125 55.4609375 C14.62474655 58.15694123 13.95350489 59.26652399 11.42578125 60.7109375 C7.89648128 61.65208416 5.25309921 61.91591474 1.61328125 61.4609375 C-1.71869265 58.79535838 -3.58894248 56.26799314 -5.38671875 52.4609375 C-5.90621094 52.94304687 -6.42570312 53.42515625 -6.9609375 53.921875 C-12.81418844 59.22334073 -16.97597104 62.03220289 -25.0390625 61.84375 C-30.18961713 61.00389251 -33.93719603 58.04635297 -37.38671875 54.2734375 C-39.35796417 48.72930976 -39.3145355 43.50986616 -36.88671875 38.1484375 C-31.28578705 32.12743593 -24.15995266 29.38025015 -16.51171875 26.7734375 C-14.82506639 26.19126218 -13.14007486 25.60424597 -11.45703125 25.01171875 C-10.35512451 24.63527222 -10.35512451 24.63527222 -9.23095703 24.2512207 C-7.1898808 23.511723 -7.1898808 23.511723 -5.38671875 21.4609375 C-5.10658584 18.80409805 -4.97053194 16.30784984 -4.94921875 13.6484375 C-4.91634766 12.93623047 -4.88347656 12.22402344 -4.84960938 11.49023438 C-4.81007539 7.60512191 -5.25005852 5.65077099 -7.53515625 2.4765625 C-10.84984266 0.13357868 -12.43793067 -0.13376848 -16.44921875 0.0234375 C-17.47144531 0.04535156 -18.49367187 0.06726563 -19.546875 0.08984375 C-22.31893347 0.45207973 -24.0550431 0.94777154 -26.38671875 2.4609375 C-26.71671875 3.1209375 -27.04671875 3.7809375 -27.38671875 4.4609375 C-26.74734375 4.7703125 -26.10796875 5.0796875 -25.44921875 5.3984375 C-23.38671875 6.4609375 -23.38671875 6.4609375 -22.38671875 7.4609375 C-21.99269419 11.00715853 -22.00136362 12.8597835 -23.94921875 15.8984375 C-26.38671875 17.4609375 -26.38671875 17.4609375 -30.01171875 17.3984375 C-33.38671875 16.4609375 -33.38671875 16.4609375 -35.38671875 13.4609375 C-35.94921875 10.1484375 -35.94921875 10.1484375 -35.38671875 6.4609375 C-27.28004792 -3.87626702 -11.35567647 -6.10857079 0 0 Z " fill="#262626" transform="translate(237.38671875,80.5390625)"/>
<path d="M0 0 C6.35673374 5.32591205 8.19369923 10.87944534 9.3125 18.9375 C9.58923201 22.63089698 9.63790113 26.29737508 9.625 30 C9.64111328 30.92876953 9.65722656 31.85753906 9.67382812 32.81445312 C9.67999229 41.59839064 7.81649357 48.93241728 2.3125 55.9375 C-1.4639202 59.31767911 -4.28310937 59.53135726 -9.21875 59.328125 C-12.18457766 58.85884847 -14.31679507 57.94040664 -16.45288086 55.78369141 C-22.10848284 47.32657015 -22.33685781 37.1223233 -22.25 27.3125 C-22.27384766 26.06726563 -22.29769531 24.82203125 -22.32226562 23.5390625 C-22.30973122 15.61731617 -21.27047603 9.52490581 -16.6875 2.9375 C-11.6283092 -1.78441141 -6.47488426 -2.55983796 0 0 Z " fill="#FAFAFA" transform="translate(134.6875,81.0625)"/>
<path d="M0 0 C4.96936432 2.29355276 6.98733492 5.12501883 9.23828125 9.90234375 C13.7423499 22.30585587 11.76385822 38.93337918 7 51 C4.31531527 54.95058391 1.78223406 57.88785254 -3 59 C-8.19385708 59.58179662 -11.74222367 59.31160381 -16 56 C-16.69399902 55.48139404 -17.38799805 54.96278809 -18.10302734 54.4284668 C-20.81675079 50.95441183 -20.61115698 47.62747469 -20.6015625 43.39453125 C-20.61013275 42.55589035 -20.618703 41.71724945 -20.62753296 40.85319519 C-20.63900717 39.0788432 -20.64002899 37.30439715 -20.63134766 35.5300293 C-20.62505958 32.8380076 -20.67182253 30.15045703 -20.72265625 27.45898438 C-20.83667317 11.89531227 -20.83667317 11.89531227 -15.57128906 5.52246094 C-10.7111619 0.81336321 -6.71594338 -1.28946113 0 0 Z " fill="#F9F9F9" transform="translate(415,81)"/>
<path d="M0 0 C4.61492903 2.06273343 7.69697034 5.02487288 10.4375 9.296875 C12.34780261 14.77774323 12.4375 19.41927406 12.4375 25.296875 C-0.1025 25.296875 -12.6425 25.296875 -25.5625 25.296875 C-24.35525688 43.08671011 -24.35525688 43.08671011 -14.5625 56.296875 C-10.98865986 58.76159234 -7.82256054 58.65188004 -3.5625 58.296875 C1.72680356 57.26356811 4.6261606 55.4896226 7.8125 51.109375 C8.27398437 50.39394531 8.73546875 49.67851562 9.2109375 48.94140625 C9.61570312 48.39871094 10.02046875 47.85601562 10.4375 47.296875 C11.0975 47.296875 11.7575 47.296875 12.4375 47.296875 C11.6369294 53.18825351 8.68037444 56.32884263 4.4375 60.296875 C-2.1037734 64.65772394 -9.95318347 64.01567037 -17.5625 63.296875 C-25.14534173 61.4159517 -29.83019077 55.57668681 -33.88671875 49.22265625 C-38.35894619 40.23112529 -38.16322972 28.02642418 -35.50390625 18.5078125 C-33.84741688 14.46735474 -31.98328777 10.92805665 -29.5625 7.296875 C-28.9025 7.296875 -28.2425 7.296875 -27.5625 7.296875 C-27.5625 6.636875 -27.5625 5.976875 -27.5625 5.296875 C-19.81769293 -1.73723213 -9.88611988 -2.71265484 0 0 Z " fill="#282828" transform="translate(354.5625,78.703125)"/>
<path d="M0 0 C2.375 1.37890625 2.375 1.37890625 4.390625 2.78515625 C6.20618374 4.14561598 6.20618374 4.14561598 9.125 3.87890625 C9.455 2.55890625 9.785 1.23890625 10.125 -0.12109375 C11.115 -0.12109375 12.105 -0.12109375 13.125 -0.12109375 C13.125 7.79890625 13.125 15.71890625 13.125 23.87890625 C12.135 23.87890625 11.145 23.87890625 10.125 23.87890625 C10.02703125 23.23824219 9.9290625 22.59757812 9.828125 21.9375 C8.56565321 14.63475371 7.15476529 9.22852015 1.0625 4.50390625 C-4.21627869 1.5837308 -8.9437533 1.19630554 -14.875 1.87890625 C-18.73044798 3.87547752 -20.47305092 5.27598263 -22.875 8.87890625 C-23.43224495 13.55397425 -23.49190583 18.18241522 -21.875 22.62890625 C-16.76724029 28.37513592 -11.1867711 32.38261647 -4.5625 36.19140625 C3.18940333 40.68372311 12.01603 46.09655308 16.3125 54.25390625 C17.99056937 61.74067728 18.46464722 69.33153641 14.45703125 76.12890625 C10.54160903 81.27292136 6.40416316 84.24021598 0.125 85.87890625 C-2.65161913 86.19436728 -5.39447577 86.25918431 -8.1875 86.25390625 C-8.9393457 86.25447021 -9.69119141 86.25503418 -10.46582031 86.25561523 C-16.42013185 86.13773996 -20.66821564 84.74556281 -25.875 81.87890625 C-28.73256913 81.11870661 -28.73256913 81.11870661 -30.875 80.87890625 C-31.205 82.19890625 -31.535 83.51890625 -31.875 84.87890625 C-32.205 84.87890625 -32.535 84.87890625 -32.875 84.87890625 C-32.875 75.63890625 -32.875 66.39890625 -32.875 56.87890625 C-32.215 56.87890625 -31.555 56.87890625 -30.875 56.87890625 C-30.54886719 58.04808594 -30.22273438 59.21726563 -29.88671875 60.421875 C-29.44569204 61.97016025 -29.00426462 63.51833139 -28.5625 65.06640625 C-28.34916016 65.83533203 -28.13582031 66.60425781 -27.91601562 67.39648438 C-26.28430657 73.07093526 -24.73263408 77.38472231 -20 81.19140625 C-14.68697922 83.96686487 -8.679358 83.61845766 -2.875 82.87890625 C1.6044723 80.79363466 4.34748707 78.52019 6.125 73.87890625 C6.77026938 68.66895348 6.82317261 64.35903218 4.5625 59.56640625 C-0.56190436 53.91642195 -6.3438342 49.75756793 -12.875 45.87890625 C-29.01247659 36.29534735 -29.01247659 36.29534735 -31.875 27.87890625 C-33.07948974 21.45791316 -34.13200421 13.84153208 -30.875 7.87890625 C-23.03218112 -1.00141557 -11.32558781 -4.41636372 0 0 Z " fill="#252525" transform="translate(71.875,56.12109375)"/>
<path d="M0 0 C6.23692523 3.35205532 11.07008289 8.80724994 13.875 15.3125 C15.75325903 26.51117651 17.41815795 40.46718758 10.875 50.3125 C10.45089844 51.02792969 10.02679688 51.74335938 9.58984375 52.48046875 C6.0490649 57.89519741 2.2318666 60.90572454 -4.125 62.3125 C-11.53659359 63.03338448 -19.9053139 63.83171683 -26.45703125 59.6953125 C-33.3919468 53.94599141 -38.37400776 47.24308549 -39.36425781 38.10449219 C-40.10610753 27.68129641 -40.20204672 17.26667045 -34.125 8.3125 C-25.24886301 -1.67114775 -12.74431234 -5.29940261 0 0 Z M-22.125 4.3125 C-27.52332339 12.07185694 -27.86400537 19.47105768 -27.6875 28.6875 C-27.69845703 29.925 -27.70941406 31.1625 -27.72070312 32.4375 C-27.6518848 41.15448766 -27.02380988 51.97568581 -20.5 58.5625 C-15.91881646 60.9379285 -12.18219726 61.34038562 -7.125 60.3125 C-2.88990107 58.14632205 -0.10672524 54.57320927 1.875 50.3125 C3.82213879 43.91987154 4.17996527 38.09745891 4.125 31.4375 C4.13273437 30.50808594 4.14046875 29.57867187 4.1484375 28.62109375 C4.11583809 16.47929664 4.11583809 16.47929664 -1 5.8125 C-1.49242187 5.1834375 -1.98484375 4.554375 -2.4921875 3.90625 C-5.51965082 0.95121404 -7.78128224 0.34576301 -12 -0.0625 C-16.43006715 0.10188097 -18.82197875 1.22968017 -22.125 4.3125 Z " fill="#2D2D2D" transform="translate(140.125,79.6875)"/>
<path d="M0 0 C0.01213028 1.60612907 0.01213028 1.60612907 0.02450562 3.2447052 C0.10191445 13.32443667 0.18964034 23.40403229 0.28752708 33.48358631 C0.33752117 38.66586938 0.38385092 43.84813176 0.421875 49.03051758 C0.45868849 54.02968976 0.50503767 59.02869009 0.55806351 64.02771568 C0.57662841 65.93710001 0.59172858 67.84652121 0.60334396 69.75596046 C0.62017058 72.4257844 0.64919673 75.09521293 0.68115234 77.76489258 C0.68331253 78.55827026 0.68547272 79.35164795 0.68769836 80.16906738 C0.74600904 83.97030773 0.84039667 85.760595 3 89 C6.05429073 90.21284876 6.05429073 90.21284876 9 91 C9 91.66 9 92.32 9 93 C-0.24 93 -9.48 93 -19 93 C-19 92.34 -19 91.68 -19 91 C-17.2984375 90.319375 -17.2984375 90.319375 -15.5625 89.625 C-11.95278308 88.42904194 -11.95278308 88.42904194 -11 86 C-10.88641829 83.54981461 -10.83220454 81.1273693 -10.82299805 78.67626953 C-10.81314125 77.54430145 -10.81314125 77.54430145 -10.80308533 76.38946533 C-10.78334258 73.88724676 -10.77168844 71.3850882 -10.76171875 68.8828125 C-10.75764322 68.02909939 -10.7535677 67.17538628 -10.74936867 66.29580307 C-10.7285051 61.77842195 -10.71420388 57.26107124 -10.70483398 52.74365234 C-10.69376074 48.07379123 -10.65935141 43.40440548 -10.61966228 38.7347126 C-10.59354166 35.14707542 -10.58514629 31.55955237 -10.58155251 27.97182846 C-10.57667578 26.25021016 -10.56503095 24.52859732 -10.54651451 22.80707169 C-10.52221598 20.39850202 -10.52307037 17.99117374 -10.5300293 15.58251953 C-10.51721924 14.87068512 -10.50440918 14.15885071 -10.49121094 13.42544556 C-10.52705399 10.02422847 -10.77235221 8.29252633 -12.88874817 5.57296753 C-14.99651029 4.00259997 -16.41919093 3.36868701 -19 3 C-19 2.34 -19 1.68 -19 1 C-16.95857606 0.83038614 -14.91684689 0.66444404 -12.875 0.5 C-11.16957031 0.36078125 -11.16957031 0.36078125 -9.4296875 0.21875 C-6.27300381 0.01741254 -3.16154133 -0.01551677 0 0 Z " fill="#242424" transform="translate(182,48)"/>
<path d="M0 0 C0 6.6 0 13.2 0 20 C5.94 20 11.88 20 18 20 C18 20.66 18 21.32 18 22 C12.39 22 6.78 22 1 22 C1.09341945 29.35089585 1.19948807 36.70145782 1.31738281 44.05200195 C1.35571119 46.55357841 1.39055718 49.05521072 1.421875 51.55688477 C1.46744146 55.14880357 1.52545024 58.74033662 1.5859375 62.33203125 C1.59748871 63.45398392 1.60903992 64.57593658 1.62094116 65.73188782 C1.64081085 66.77274033 1.66068054 67.81359283 1.68115234 68.88598633 C1.69447601 69.80309891 1.70779968 70.72021149 1.7215271 71.66511536 C1.85377574 74.27061139 1.85377574 74.27061139 4 77 C9.14833202 77.72848285 9.14833202 77.72848285 13.6171875 75.73828125 C15.12271625 73.84573805 16.14987794 71.99508434 17.1875 69.8125 C17.70376953 68.73935547 17.70376953 68.73935547 18.23046875 67.64453125 C18.61138672 66.83048828 18.61138672 66.83048828 19 66 C19.66 66 20.32 66 21 66 C20.34 69.3 19.68 72.6 19 76 C18.34 76 17.68 76 17 76 C16.731875 76.61875 16.46375 77.2375 16.1875 77.875 C15 80 15 80 12 82 C6.86314642 82.72193618 1.42123016 83.17221493 -3.33984375 80.8671875 C-7.26991109 77.69322191 -8.71597865 74.91967354 -10 70 C-10.26864213 66.30268624 -10.23284911 62.61942044 -10.1953125 58.9140625 C-10.1924826 57.85714203 -10.18965271 56.80022156 -10.18673706 55.71127319 C-10.1755785 52.34906499 -10.15048159 48.98712714 -10.125 45.625 C-10.11496462 43.33984761 -10.10583975 41.05469102 -10.09765625 38.76953125 C-10.07565327 33.17958398 -10.04115296 27.58983777 -10 22 C-13.63 22 -17.26 22 -21 22 C-21 21.34 -21 20.68 -21 20 C-17.37 20 -13.74 20 -10 20 C-10 13.73 -10 7.46 -10 1 C-4 0 -4 0 0 0 Z " fill="#2D2D2D" transform="translate(465,60)"/>
<path d="M0 0 C3.52244687 1.86945504 5.92349325 3.74887897 7.875 7.3125 C8.35586483 10.6785538 8.19834316 12.58973293 6.8125 15.6875 C4.875 17.3125 4.875 17.3125 1.3125 17.6875 C-2.125 17.3125 -2.125 17.3125 -4.125 15.3125 C-4.39491906 12.62410615 -4.21237357 10.02108064 -4.125 7.3125 C-2.805 6.6525 -1.485 5.9925 -0.125 5.3125 C-0.125 4.6525 -0.125 3.9925 -0.125 3.3125 C-5.38908126 1.09604473 -10.49656481 0.33131478 -16.125 1.3125 C-21.83771696 4.06587781 -24.13445636 8.80864 -26.3046875 14.50341797 C-27.68452361 19.22853533 -27.76144402 23.79289611 -27.6875 28.6875 C-27.67871826 29.69466064 -27.66993652 30.70182129 -27.66088867 31.73950195 C-27.45431929 39.28263588 -26.64220757 46.0107166 -22.125 52.3125 C-18.45360395 55.61502737 -15.90411735 57.13807673 -10.9375 57.625 C-5.0144589 57.13950483 -0.79359229 55.11282326 3.25 50.75 C3.78625 49.945625 4.3225 49.14125 4.875 48.3125 C5.535 47.3225 6.195 46.3325 6.875 45.3125 C7.535 45.3125 8.195 45.3125 8.875 45.3125 C7.75205396 50.99176731 4.52879071 55.94169645 0.2265625 59.78515625 C-6.12281948 63.65301121 -13.9901617 63.20337795 -21.125 62.3125 C-28.3413937 59.79954934 -33.26449745 53.58441828 -36.9375 47.125 C-40.7621557 38.06660491 -40.69333395 25.98723506 -38.1015625 16.609375 C-34.62114316 9.11012891 -29.21855851 2.88039683 -21.76953125 -0.875 C-14.8999536 -2.98559402 -6.65244996 -2.72949359 0 0 Z " fill="#272727" transform="translate(299.125,79.6875)"/>
<path d="M0 0 C6.36042919 3.79510016 10.32699718 9.06615155 12.1484375 16.2421875 C14.12739975 29.5109672 13.7651685 41.81814212 5.7578125 53.05859375 C1.87842721 57.77574512 -1.473103 60.76715179 -7.375 62.4375 C-10.3125 62.625 -10.3125 62.625 -12.375 62.4375 C-12.375 61.4475 -12.375 60.4575 -12.375 59.4375 C-11.4675 59.06625 -10.56 58.695 -9.625 58.3125 C-4.71499524 55.47980495 -3.12670193 52.80874859 -1.46484375 47.56640625 C1.48973238 35.67939066 3.45976571 19.73948712 -2.375 8.4375 C-5.80636736 4.33659754 -7.74263163 2.60350356 -13.0625 2.0625 C-17.97320658 2.12488647 -20.86732838 4.15183291 -24.375 7.4375 C-26.7453946 10.08382262 -26.7453946 10.08382262 -28.375 12.4375 C-28.375 8.49017031 -26.90209588 6.30919986 -24.375 3.4375 C-17.5955411 -2.82046207 -8.40366127 -3.70276263 0 0 Z " fill="#2A2A2A" transform="translate(424.375,79.5625)"/>
<path d="M0 0 C9.04197388 -0.60843189 15.62762081 0.42259884 22.75 6.25 C31.70726302 17.19776591 32.21810306 29.20921468 31 43 C30.18077693 46.45946198 28.95869144 49.05286675 27 52 C26.55269531 52.75023437 26.10539062 53.50046875 25.64453125 54.2734375 C22.18399209 59.56166087 22.18399209 59.56166087 19.05859375 60.71875 C17.125 61 17.125 61 14 61 C14.58308193 56.21872821 16.05013606 52.38719385 18 48 C19.46680792 43.20232855 19.18419792 38.34793308 19.1875 33.375 C19.20586914 31.95380859 19.20586914 31.95380859 19.22460938 30.50390625 C19.24274602 21.66531284 18.81947053 12.70114345 13.0625 5.5625 C8.99289848 2.47946854 3.96163511 2.32114143 -1 2 C-0.67 1.34 -0.34 0.68 0 0 Z " fill="#272727" transform="translate(124,78)"/>
<path d="M0 0 C2.375 1.37890625 2.375 1.37890625 4.390625 2.78515625 C6.20618374 4.14561598 6.20618374 4.14561598 9.125 3.87890625 C9.455 2.55890625 9.785 1.23890625 10.125 -0.12109375 C11.115 -0.12109375 12.105 -0.12109375 13.125 -0.12109375 C13.125 7.79890625 13.125 15.71890625 13.125 23.87890625 C12.135 23.87890625 11.145 23.87890625 10.125 23.87890625 C10.02703125 23.23824219 9.9290625 22.59757812 9.828125 21.9375 C8.56565321 14.63475371 7.15476529 9.22852015 1.0625 4.50390625 C-4.21627869 1.5837308 -8.9437533 1.19630554 -14.875 1.87890625 C-18.73044798 3.87547752 -20.47305092 5.27598263 -22.875 8.87890625 C-23.43224495 13.55397425 -23.49190583 18.18241522 -21.875 22.62890625 C-18.83391983 26.05012144 -15.40290806 28.97110554 -11.875 31.87890625 C-12.205 33.19890625 -12.535 34.51890625 -12.875 35.87890625 C-14.36 35.38390625 -14.36 35.38390625 -15.875 34.87890625 C-18.125 36.04557292 -18.125 36.04557292 -19.875 37.87890625 C-19.875 38.86890625 -19.875 39.85890625 -19.875 40.87890625 C-25.09738647 37.41844143 -29.87022527 34.07652412 -31.875 27.87890625 C-33.07162441 21.45258997 -34.13448848 13.84608003 -30.875 7.87890625 C-23.03218112 -1.00141557 -11.32558781 -4.41636372 0 0 Z " fill="#2A2A2A" transform="translate(71.875,56.12109375)"/>
<path d="M0 0 C0.66 0 1.32 0 2 0 C2.20460792 3.85337428 2.32806124 7.70534211 2.4375 11.5625 C2.49615234 12.64853516 2.55480469 13.73457031 2.61523438 14.85351562 C2.78394015 22.78268721 2.78394015 22.78268721 0.51611328 26.30419922 C-3.38011973 30.31523836 -6.19862341 31.82567323 -11.875 32.375 C-15.0768167 32.29229625 -16.09844194 31.94257553 -19 30.25 C-22.07465732 25.25368186 -22.00996294 20.70287344 -21 15 C-18.12175122 8.03229368 -10.37842489 5.34820812 -3.94921875 2.3828125 C-1.17046901 1.28381579 -1.17046901 1.28381579 0 0 Z " fill="#F8F8F8" transform="translate(231,105)"/>
<path d="M0 0 C4.75304428 2.64058016 6.45161388 5.86587762 8 11 C8 14.63 8 18.26 8 22 C-0.58 22 -9.16 22 -18 22 C-18 13.37436166 -17.87857199 9.7277268 -12.6796875 3.390625 C-8.55774931 -0.61869193 -5.40421444 -0.77203063 0 0 Z " fill="#F5F5F5" transform="translate(348,80)"/>
<path d="M0 0 C-3.24243266 3.79218768 -7.63340719 5.2835527 -12.08984375 7.3046875 C-15.36206915 9.2109235 -17.03056628 10.76919088 -19 14 C-19.51688934 17.05056756 -19.51688934 17.05056756 -19.3125 20.1875 C-19.28800781 21.23292969 -19.26351562 22.27835938 -19.23828125 23.35546875 C-19.16446617 25.97535385 -19.16446617 25.97535385 -18 28 C-18.66 28.33 -19.32 28.66 -20 29 C-20.33 29.99 -20.66 30.98 -21 32 C-21.66 32 -22.32 32 -23 32 C-23.33 32.66 -23.66 33.32 -24 34 C-31.28717991 26.90458798 -31.28717991 26.90458798 -31.375 21.1875 C-31.2476247 16.31893297 -30.40092732 13.65599687 -27 10 C-22.2428947 5.95646049 -16.4445266 3.84538341 -10.6875 1.625 C-9.98141602 1.34978516 -9.27533203 1.07457031 -8.54785156 0.79101562 C-3.36694753 -1.12231584 -3.36694753 -1.12231584 0 0 Z " fill="#2E2E2E" transform="translate(230,106)"/>
<path d="M0 0 C2.64076483 1.78179078 4.2440137 3.39922474 5.77734375 6.19921875 C6.25820858 9.56527255 6.10068691 11.47645168 4.71484375 14.57421875 C2.77734375 16.19921875 2.77734375 16.19921875 -0.78515625 16.57421875 C-4.22265625 16.19921875 -4.22265625 16.19921875 -6.22265625 14.19921875 C-6.49257531 11.5108249 -6.31002982 8.90779939 -6.22265625 6.19921875 C-4.90265625 5.53921875 -3.58265625 4.87921875 -2.22265625 4.19921875 C-2.22265625 3.53921875 -2.22265625 2.87921875 -2.22265625 2.19921875 C-7.448453 -0.00111672 -12.63274164 -0.84281905 -18.22265625 0.19921875 C-20.9794854 1.84825784 -23.0667921 3.83511773 -25.22265625 6.19921875 C-25.88265625 6.85921875 -26.54265625 7.51921875 -27.22265625 8.19921875 C-27.22265625 7.20921875 -27.22265625 6.21921875 -27.22265625 5.19921875 C-28.17140625 5.71484375 -29.12015625 6.23046875 -30.09765625 6.76171875 C-31.12890625 7.23609375 -32.16015625 7.71046875 -33.22265625 8.19921875 C-33.88265625 7.86921875 -34.54265625 7.53921875 -35.22265625 7.19921875 C-33.83476823 5.89901864 -32.43696367 4.60939945 -31.03515625 3.32421875 C-30.25785156 2.60492188 -29.48054688 1.885625 -28.6796875 1.14453125 C-20.78905856 -5.10273936 -8.66233835 -4.59733041 0 0 Z " fill="#2C2C2C" transform="translate(301.22265625,80.80078125)"/>
<path d="M0 0 C0.66 0 1.32 0 2 0 C2.32613281 1.16917969 2.65226562 2.33835937 2.98828125 3.54296875 C3.42930796 5.091254 3.87073538 6.63942514 4.3125 8.1875 C4.52583984 8.95642578 4.73917969 9.72535156 4.95898438 10.51757812 C6.59069343 16.19202901 8.14236592 20.50581606 12.875 24.3125 C18.18802078 27.08795862 24.195642 26.73955141 30 26 C34.59664237 23.86018372 36.74553013 21.50893974 39 17 C40.5 18.375 40.5 18.375 42 20 C42 20.66 42 21.32 42 22 C42.66 22.33 43.32 22.66 44 23 C38.00126666 28.29300001 32.43287565 29.38963666 24.6875 29.375 C23.9356543 29.37556396 23.18380859 29.37612793 22.40917969 29.37670898 C16.45486815 29.25883371 12.20678436 27.86665656 7 25 C4.14243087 24.23980036 4.14243087 24.23980036 2 24 C1.67 25.32 1.34 26.64 1 28 C0.67 28 0.34 28 0 28 C0 18.76 0 9.52 0 0 Z " fill="#2E2E2E" transform="translate(39,113)"/>
<path d="M0 0 C2.3671875 1.3828125 2.3671875 1.3828125 4.3828125 2.7890625 C6.19837124 4.14952223 6.19837124 4.14952223 9.1171875 3.8828125 C9.4471875 2.5628125 9.7771875 1.2428125 10.1171875 -0.1171875 C11.1071875 -0.1171875 12.0971875 -0.1171875 13.1171875 -0.1171875 C13.1171875 7.8028125 13.1171875 15.7228125 13.1171875 23.8828125 C12.1271875 23.8828125 11.1371875 23.8828125 10.1171875 23.8828125 C10.01921875 23.24214844 9.92125 22.60148437 9.8203125 21.94140625 C8.55784071 14.63865996 7.14695279 9.2324264 1.0546875 4.5078125 C-4.28688386 1.55290069 -8.90402503 1.47343692 -14.8828125 1.8828125 C-17.86261451 2.73341263 -17.86261451 2.73341263 -19.8828125 3.8828125 C-20.2128125 2.5628125 -20.5428125 1.2428125 -20.8828125 -0.1171875 C-14.62041876 -2.20465208 -6.19993324 -2.40268415 0 0 Z " fill="#282828" transform="translate(71.8828125,56.1171875)"/>
<path d="M0 0 C1.18464844 -0.00515625 2.36929687 -0.0103125 3.58984375 -0.015625 C7.06332283 0.25006294 9.82335468 1.00379447 13.0625 2.25 C12.0725 3.24 11.0825 4.23 10.0625 5.25 C9.50175781 4.9303125 8.94101562 4.610625 8.36328125 4.28125 C4.33763849 2.4768872 0.36992144 2.46923851 -3.9375 3.25 C-6.69782691 4.89509428 -8.78109766 6.88530879 -10.9375 9.25 C-11.5975 9.91 -12.2575 10.57 -12.9375 11.25 C-12.9375 10.26 -12.9375 9.27 -12.9375 8.25 C-13.88625 8.765625 -14.835 9.28125 -15.8125 9.8125 C-16.84375 10.286875 -17.875 10.76125 -18.9375 11.25 C-19.5975 10.92 -20.2575 10.59 -20.9375 10.25 C-19.54961198 8.94979989 -18.15180742 7.6601807 -16.75 6.375 C-15.97269531 5.65570313 -15.19539063 4.93640625 -14.39453125 4.1953125 C-9.71979869 0.49417289 -5.89725238 -0.02561239 0 0 Z " fill="#2E2E2E" transform="translate(286.9375,77.75)"/>
<path d="M0 0 C0.66 0 1.32 0 2 0 C1.34 3.3 0.68 6.6 0 10 C-0.66 10 -1.32 10 -2 10 C-2.268125 10.61875 -2.53625 11.2375 -2.8125 11.875 C-4 14 -4 14 -7 16 C-9.48046875 16.1953125 -9.48046875 16.1953125 -12.1875 16.125 C-13.08855469 16.10695312 -13.98960937 16.08890625 -14.91796875 16.0703125 C-15.60503906 16.04710937 -16.29210937 16.02390625 -17 16 C-16.67 14.68 -16.34 13.36 -16 12 C-15.38511719 11.96261719 -14.77023437 11.92523438 -14.13671875 11.88671875 C-13.32847656 11.82097656 -12.52023437 11.75523437 -11.6875 11.6875 C-10.88699219 11.62949219 -10.08648437 11.57148438 -9.26171875 11.51171875 C-6.5435277 10.89672216 -5.70203133 10.17701682 -4 8 C-2.80400932 5.96767758 -2.80400932 5.96767758 -1.8125 3.8125 C-1.46832031 3.09707031 -1.12414062 2.38164062 -0.76953125 1.64453125 C-0.38861328 0.83048828 -0.38861328 0.83048828 0 0 Z " fill="#2E2E2E" transform="translate(484,126)"/>
<path d="M0 0 C-0.99 0.495 -0.99 0.495 -2 1 C-2.65213292 3.02463255 -2.65213292 3.02463255 -3 5 C-3.66 4.67 -4.32 4.34 -5 4 C-10.81103205 3.40904759 -13.88005783 3.88891931 -18.45703125 7.5546875 C-20.56231978 9.52672992 -22.32539699 11.65555579 -24 14 C-24 10.05267031 -22.52709588 7.87169986 -20 5 C-13.93740124 -0.596245 -7.94463208 -0.59584741 0 0 Z " fill="#2B2B2B" transform="translate(420,78)"/>
<path d="M0 0 C3 0 3 0 4.9375 1.875 C5.618125 2.57625 6.29875 3.2775 7 4 C10.07363168 5.86684788 12.68620685 6.34364791 16.25 6.625 C17.14203125 6.69976562 18.0340625 6.77453125 18.953125 6.8515625 C19.96632813 6.92503906 19.96632813 6.92503906 21 7 C21 7.33 21 7.66 21 8 C14.20183049 9.16903102 8.9384389 9.44655709 2.68359375 6.2578125 C1 5 1 5 -0.0625 2.25 C-0.041875 1.5075 -0.02125 0.765 0 0 Z " fill="#393939" transform="translate(45,133)"/>
<path d="M0 0 C0.66 0 1.32 0 2 0 C1.47315196 4.07239298 0.36950851 6.21598637 -2.375 9.25 C-2.98085938 9.93578125 -3.58671875 10.6215625 -4.2109375 11.328125 C-6 13 -6 13 -9 14 C-9 13.34 -9 12.68 -9 12 C-10.65 12 -12.3 12 -14 12 C-13.46375 11.7525 -12.9275 11.505 -12.375 11.25 C-6.67416886 8.24956256 -3.46727238 5.44857088 0 0 Z " fill="#393939" transform="translate(365,126)"/>
<path d="M0 0 C-2.67079731 3.2107419 -5.92193387 4.50977252 -9.6875 6.1875 C-10.86699219 6.71730469 -12.04648438 7.24710938 -13.26171875 7.79296875 C-14.16535156 8.19128906 -15.06898438 8.58960937 -16 9 C-16.33 7.35 -16.66 5.7 -17 4 C-14.73291675 3.1344953 -12.46224921 2.28240685 -10.1875 1.4375 C-9.54490234 1.19064453 -8.90230469 0.94378906 -8.24023438 0.68945312 C-3.33984375 -1.11328125 -3.33984375 -1.11328125 0 0 Z " fill="#373737" transform="translate(230,106)"/>
<path d="M0 0 C0.66 0.66 1.32 1.32 2 2 C-4.75073318 8.26494841 -8.84518574 11.284123 -18.20703125 11.0703125 C-18.79871094 11.04710937 -19.39039063 11.02390625 -20 11 C-20 10.67 -20 10.34 -20 10 C-18.1746875 9.87625 -18.1746875 9.87625 -16.3125 9.75 C-12.15101052 9.23714038 -10.11377261 7.86130456 -7 5 C-5.33675599 3.99431758 -3.67063747 2.99335201 -2 2 C-1.34 1.34 -0.68 0.68 0 0 Z " fill="#454545" transform="translate(230,131)"/>
<path d="M0 0 C0.69738281 0.00902344 1.39476562 0.01804687 2.11328125 0.02734375 C3.82566958 0.05080112 5.53788004 0.08666896 7.25 0.125 C6.26 0.62 6.26 0.62 5.25 1.125 C5.25 1.785 5.25 2.445 5.25 3.125 C4.23679687 3.09019531 4.23679687 3.09019531 3.203125 3.0546875 C2.31109375 3.03664063 1.4190625 3.01859375 0.5 3 C-0.38171875 2.97679688 -1.2634375 2.95359375 -2.171875 2.9296875 C-4.8635858 3.13360498 -6.44904974 3.75948279 -8.75 5.125 C-9.74 4.135 -10.73 3.145 -11.75 2.125 C-8.00764681 -0.32489101 -4.30774581 -0.10586143 0 0 Z " fill="#323232" transform="translate(344.75,77.875)"/>
<path d="M0 0 C0.66 0 1.32 0 2 0 C1.35952602 3.44748958 0.00294981 5.84644185 -1.9375 8.75 C-2.46214844 9.54921875 -2.98679687 10.3484375 -3.52734375 11.171875 C-4.01332031 11.77515625 -4.49929688 12.3784375 -5 13 C-5.66 13 -6.32 13 -7 13 C-7 12.34 -7 11.68 -7 11 C-7.66 10.67 -8.32 10.34 -9 10 C-8.071875 9.278125 -7.14375 8.55625 -6.1875 7.8125 C-3.39159002 5.5099859 -1.80139496 3.15244118 0 0 Z " fill="#424242" transform="translate(306,125)"/>
<path d="M0 0 C0.99 0 1.98 0 3 0 C3 7.92 3 15.84 3 24 C2.67 24 2.34 24 2 24 C1.95101562 22.72382812 1.90203125 21.44765625 1.8515625 20.1328125 C1.77653809 18.46351928 1.70099012 16.79424954 1.625 15.125 C1.57859375 13.86236328 1.57859375 13.86236328 1.53125 12.57421875 C1.49257812 11.76855469 1.45390625 10.96289062 1.4140625 10.1328125 C1.3826416 9.38918457 1.3512207 8.64555664 1.31884766 7.87939453 C1.14580449 5.75989026 1.14580449 5.75989026 -1 4 C-0.625 1.875 -0.625 1.875 0 0 Z " fill="#636363" transform="translate(82,56)"/>
<path d="M0 0 C2.97 0 5.94 0 9 0 C8.67 0.99 8.34 1.98 8 3 C4.52674819 4.1577506 1.63932552 4.06866652 -2 4 C-1.34 2.68 -0.68 1.36 0 0 Z " fill="#212121" transform="translate(347,138)"/>
<path d="M0 0 C4.0138236 1.21348155 7.69100609 2.37226954 11 5 C11.1328125 7.60546875 11.1328125 7.60546875 11 10 C10.45730469 9.59007813 9.91460937 9.18015625 9.35546875 8.7578125 C8.64003906 8.21898437 7.92460938 7.68015625 7.1875 7.125 C6.47980469 6.59132813 5.77210937 6.05765625 5.04296875 5.5078125 C3.39543703 4.29185219 1.70375789 3.13583859 0 2 C0 1.34 0 0.68 0 0 Z " fill="#474747" transform="translate(67,55)"/>
<path d="M0 0 C-0.125 1.875 -0.125 1.875 -1 4 C-4.0625 5.25 -4.0625 5.25 -7 6 C-7.33 5.01 -7.66 4.02 -8 3 C-5.53387212 -0.1151089 -3.89156016 -0.31553191 0 0 Z " fill="#2E2E2E" transform="translate(299,136)"/>
<path d="M0 0 C0.66 0 1.32 0 2 0 C1.34 3.3 0.68 6.6 0 10 C-1.32 10 -2.64 10 -4 10 C-2.8905928 6.51329166 -1.73662334 3.22515763 0 0 Z " fill="#494949" transform="translate(484,126)"/>
<path d="M0 0 C0.33 0.99 0.66 1.98 1 3 C0.2575 3.556875 -0.485 4.11375 -1.25 4.6875 C-3.91707995 6.93027178 -5.91556232 9.22074975 -8 12 C-8 7.92699831 -6.41547466 6.22063289 -4 3 C-1.75 1.125 -1.75 1.125 0 0 Z " fill="#474747" transform="translate(404,80)"/>
<path d="M0 0 C-0.33 0.66 -0.66 1.32 -1 2 C-4.14930893 3.04976964 -6.38814456 3.10131595 -9.6875 3.0625 C-10.68136719 3.05347656 -11.67523438 3.04445312 -12.69921875 3.03515625 C-13.83810547 3.01775391 -13.83810547 3.01775391 -15 3 C-15 2.67 -15 2.34 -15 2 C-9.77487721 0.53329887 -5.4185766 -0.22577402 0 0 Z " fill="#262626" transform="translate(76,139)"/>
<path d="M0 0 C-0.99 0.99 -1.98 1.98 -3 3 C-3.515625 2.690625 -4.03125 2.38125 -4.5625 2.0625 C-7.66665423 0.70940713 -10.65115007 0.38640576 -14 0 C-14 -0.33 -14 -0.66 -14 -1 C-8.65998179 -2.33500455 -5.16044765 -1.512545 0 0 Z " fill="#454545" transform="translate(300,80)"/>
<path d="M0 0 C-1.32 1.32 -2.64 2.64 -4 4 C-5.32 3.01 -6.64 2.02 -8 1 C-4.93251126 -0.86240388 -3.40254489 -1.2151946 0 0 Z " fill="#3B3B3B" transform="translate(341,79)"/>
<path d="M0 0 C1.86323318 0.25288812 3.71708432 0.57690153 5.5625 0.9375 C6.57441406 1.13214844 7.58632812 1.32679688 8.62890625 1.52734375 C9.80259766 1.76130859 9.80259766 1.76130859 11 2 C11 2.33 11 2.66 11 3 C7.37 3.33 3.74 3.66 0 4 C-0.33 3.01 -0.66 2.02 -1 1 C-0.67 0.67 -0.34 0.34 0 0 Z " fill="#353535" transform="translate(120,138)"/>
<path d="M0 0 C0 0.66 0 1.32 0 2 C0.99 2.33 1.98 2.66 3 3 C0.36 3.33 -2.28 3.66 -5 4 C-5 3.01 -5 2.02 -5 1 C-2 0 -2 0 0 0 Z " fill="#383838" transform="translate(417,138)"/>
</svg>
